<svg width="55" height="55" viewBox="0 0 55 55" fill="none" xmlns="http://www.w3.org/2000/svg">
<g id="Group 67">
<rect id="Rectangle 26" width="55" height="55" rx="10" fill="#E6EDFC"/>
<path id="Vector" d="M26.3348 10.6353C27.1912 9.78206 28.3527 9.30268 29.5638 9.30261H39.3505C40.3753 9.30261 41.3582 9.7082 42.0828 10.4302C42.8075 11.1521 43.2146 12.1313 43.2146 13.1523V22.901C43.2148 23.4987 43.0967 24.0906 42.8672 24.6428C42.6376 25.195 42.3012 25.6967 41.8769 26.1193L28.8795 39.0682C28.4554 39.4908 27.9519 39.8261 27.3978 40.0548C26.8436 40.2836 26.2497 40.4013 25.6498 40.4013C25.05 40.4013 24.456 40.2836 23.9019 40.0548C23.3477 39.8261 22.8442 39.4908 22.4201 39.0682L13.3374 30.018C12.4811 29.1648 12 28.0076 12 26.8011C12 25.5945 12.4811 24.4374 13.3374 23.5842L26.3348 10.6353ZM35.4864 19.1017C36.0454 19.1017 36.5815 18.8805 36.9768 18.4867C37.372 18.0929 37.5941 17.5588 37.5941 17.0019C37.5941 16.445 37.372 15.9109 36.9768 15.5171C36.5815 15.1233 36.0454 14.9021 35.4864 14.9021C34.9274 14.9021 34.3913 15.1233 33.996 15.5171C33.6008 15.9109 33.3787 16.445 33.3787 17.0019C33.3787 17.5588 33.6008 18.0929 33.996 18.4867C34.3913 18.8805 34.9274 19.1017 35.4864 19.1017Z" fill="#2257C6"/>
</g>
</svg>
