<svg width="55" height="55" viewBox="0 0 55 55" fill="none" xmlns="http://www.w3.org/2000/svg">
<g id="Group 69">
<rect id="Rectangle 27" width="55" height="55" rx="10" fill="#E6EDFC"/>
<path id="Vector" d="M28.3968 16.3757H26.6089C26.4453 16.3757 26.3115 16.509 26.3115 16.6719V26.8667C26.3115 26.963 26.3561 27.0519 26.4342 27.1074L32.5784 31.5772C32.7123 31.6735 32.8981 31.6475 32.9948 31.5142L34.0578 30.07C34.1582 29.933 34.1285 29.7478 33.9946 29.6552L28.6941 25.8373V16.6719C28.6941 16.509 28.5603 16.3757 28.3968 16.3757ZM36.5668 19.1605L42.3952 20.5788C42.581 20.6232 42.7632 20.4825 42.7632 20.2936L42.7929 14.313C42.7929 14.0649 42.5067 13.9242 42.3134 14.0797L36.4553 18.6383C36.4111 18.6724 36.3773 18.7183 36.3581 18.7707C36.3388 18.823 36.3348 18.8797 36.3464 18.9343C36.3581 18.9888 36.3849 19.039 36.4239 19.079C36.4629 19.119 36.5125 19.1472 36.5668 19.1605ZM42.8003 30.3107L40.6928 29.5886C40.6193 29.5635 40.5389 29.568 40.4687 29.6012C40.3986 29.6345 40.3442 29.6937 40.3174 29.7663C40.2467 29.9552 40.1724 30.1403 40.0943 30.3255C39.4327 31.8845 38.4848 33.288 37.2731 34.4916C36.0748 35.6891 34.6546 36.6436 33.0914 37.3023C31.472 37.9844 29.7312 38.3345 27.973 38.3318C26.1963 38.3318 24.4753 37.9874 22.8546 37.3023C21.2914 36.6436 19.8712 35.6891 18.6729 34.4916C17.4649 33.288 16.517 31.8845 15.8517 30.3255C15.1708 28.7112 14.8219 26.9772 14.8258 25.2262C14.8258 23.4561 15.1715 21.7379 15.8591 20.1233C16.5208 18.5642 17.4686 17.1607 18.6804 15.9572C19.8787 14.7597 21.2988 13.8051 22.8621 13.1465C24.4753 12.4614 26.2 12.117 27.9767 12.117C29.7535 12.117 31.4745 12.4614 33.0951 13.1465C34.6584 13.8051 36.0785 14.7597 37.2768 15.9572C37.6559 16.3386 38.0128 16.7349 38.3399 17.1533L40.5627 15.4203C37.6374 11.6949 33.084 9.29891 27.9693 9.30262C19.0632 9.30632 11.9116 16.5127 12.0008 25.3892C12.09 34.1101 19.2082 41.1499 27.9767 41.1499C34.8719 41.1499 40.7448 36.7949 42.9825 30.6958C43.0382 30.5403 42.9565 30.3662 42.8003 30.3107Z" fill="#2257C6"/>
</g>
</svg>
