<svg width="33" height="26" viewBox="0 0 33 26" fill="none" xmlns="http://www.w3.org/2000/svg">
<g id="Group">
<path id="Vector" d="M9.15787 24.0444C10.9601 24.0444 12.421 22.5889 12.421 20.7934C12.421 18.998 10.9601 17.5425 9.15787 17.5425C7.35568 17.5425 5.89471 18.998 5.89471 20.7934C5.89471 22.5889 7.35568 24.0444 9.15787 24.0444Z" stroke="#2257C6" stroke-width="2" stroke-linecap="round" stroke-linejoin="round"/>
<path id="Vector_2" d="M25.4737 24.0444C27.2759 24.0444 28.7368 22.5889 28.7368 20.7934C28.7368 18.998 27.2759 17.5425 25.4737 17.5425C23.6715 17.5425 22.2105 18.998 22.2105 20.7934C22.2105 22.5889 23.6715 24.0444 25.4737 24.0444Z" stroke="#2257C6" stroke-width="2" stroke-linecap="round" stroke-linejoin="round"/>
<path id="Vector_3" d="M5.89474 20.7935H2.63158V14.2915M1 1.28766H18.9474V20.7935M12.4211 20.7935H22.2105M28.7368 20.7935H32V11.0406H18.9474M18.9474 2.91314H27.1053L32 11.0406M2.63158 7.78959H9.15789" stroke="#2257C6" stroke-width="2" stroke-linecap="round" stroke-linejoin="round"/>
</g>
</svg>
